<?xml version="1.0" encoding="UTF-8"?>
<svg width="90px" height="48px" viewBox="0 0 90 48" version="1.1" xmlns="http://www.w3.org/2000/svg" xmlns:xlink="http://www.w3.org/1999/xlink">
    <!-- Generator: Sketch 56.2 (81672) - https://sketch.com -->
    <title>logo</title>
    <desc>Created with Sketch.</desc>
    <g id="Design" stroke="none" stroke-width="1" fill="none" fill-rule="evenodd">
        <g id="01.1-Navigatie-particulier" transform="translate(-140.000000, -41.000000)">
            <g id="Desktop/Navbar">
                <g id="logo" transform="translate(140.000000, 41.000000)">
                    <path d="M68.430169,33.1926972 C64.0543944,33.1926972 60.3035493,31.6791761 57.8684789,28.9303732 C56.2744648,27.1316408 54.5010845,23.9417113 55.1063662,18.9650915 C55.3909437,16.6212887 56.4430563,13.1600915 59.8408732,9.98030282 C61.9996056,7.95973944 64.7103803,6.49755634 67.0922113,6.06973944 C69.8067887,5.58107746 71.5491127,5.74776761 73.5196056,6.68579577 C74.2877746,7.0508662 75.620662,7.99523239 75.9248873,10.2192465 C75.996507,10.7427676 76.0148873,11.336007 75.9800282,12.0344577 C75.9331268,12.9915 75.7987606,13.8680493 75.7835493,13.9650211 C75.4926338,15.8245986 73.8878451,17.1530493 72.062493,17.1530493 C71.8685493,17.1530493 71.6720704,17.137838 71.4749577,17.1074155 C69.6603803,16.822838 68.3522113,15.289669 68.288831,13.5207254 C67.4927746,13.7102324 66.1744648,14.3814296 64.9936901,15.4861479 C64.0322113,16.3867817 62.8349577,17.8787535 62.5922113,19.8745986 C62.3786197,21.6340352 62.6879155,22.9986127 63.5131268,23.929669 C64.4822113,25.0236127 66.2752394,25.6517113 68.430169,25.6517113 C70.0134085,25.6517113 73.2521408,24.6503028 75.3481268,20.9000915 C76.3641127,19.0823451 78.6610141,18.4320634 80.4793944,19.4474155 C82.2971408,20.4634014 82.9474225,22.7609366 81.9314366,24.5786831 C80.3722817,27.3693169 78.1704507,29.6453028 75.5648873,31.1613592 C73.3117183,32.4707958 70.7777746,33.1926972 68.430169,33.1926972 Z M89.8445282,29.531662 C89.8445282,32.1879296 88.2118521,33.1791972 86.196993,33.1791972 C84.1821338,33.1791972 82.5488239,31.9578592 82.5488239,29.943 C82.5488239,27.9287746 84.1821338,25.8841268 86.196993,25.8841268 C88.2118521,25.8841268 89.8445282,27.5168028 89.8445282,29.531662 Z" id="Combined-Shape" fill="#EB0024" fill-rule="nonzero"></path>
                    <path d="M14.2248803,6.52810563 C20.3303028,6.52810563 24.1229789,10.5597254 24.1229789,17.0498662 L24.1229789,32.074162 L16.4317817,32.074162 L16.4317817,18.2445845 C16.4317817,16.4883169 15.868331,13.543669 12.094669,13.543669 C9.58417606,13.543669 7.86023239,15.3563451 7.7049507,18.1621901 L7.70558451,32.074162 L0.0143873239,32.074162 L0.0143873239,0.633739437 L7.70558451,0.633739437 L7.70558451,8.76669718 C9.3015,7.35141549 11.6636831,6.52810563 14.2248803,6.52810563 Z M26.6087535,8.14728169 L34.3817113,6.42397183 C34.3950211,6.52411268 35.584669,15.3124225 40.4681197,23.2330563 C45.3826268,15.2826338 46.5361479,6.53108451 46.5488239,6.43094366 L54.3217817,8.15425352 C53.8305845,11.1470704 51.6991056,22.7931972 43.9236127,32.0815775 L37.0081901,32.0815775 C29.2257254,22.7855915 27.0974155,11.1280563 26.6087535,8.14728169 Z" id="Combined-Shape" fill="#1D1D1B"></path>
                    <path d="M3.35275352,42.8742887 C3.33437324,42.2366831 2.91859859,41.7385141 2.1339507,41.7385141 C1.40380986,41.7385141 0.96078169,42.3019648 0.923387324,42.8742887 L3.35275352,42.8742887 Z M4.23057042,44.2870352 C3.98085211,45.0729507 3.26972535,45.6915423 2.23535915,45.6915423 C1.04380986,45.6915423 -6.33802793e-05,44.8232324 -6.33802793e-05,43.3179507 C-6.33802793e-05,41.9229507 1.0070493,40.9716127 2.12444366,40.9716127 C3.49155634,40.9716127 4.25782394,41.9134437 4.25782394,43.2995704 C4.25782394,43.4104859 4.2489507,43.5214014 4.23944366,43.5759085 L0.896133803,43.5759085 C0.914514085,44.3706972 1.48747183,44.9246408 2.23535915,44.9246408 C2.95599296,44.9246408 3.31599296,44.5278803 3.4826831,44.0284437 L4.23057042,44.2870352 Z M6.1875,45.5531197 L5.31919014,45.5531197 L5.31919014,41.110162 L6.16911972,41.110162 L6.16911972,41.7477676 C6.49235915,41.1931901 7.0190493,40.9808662 7.53623239,40.9808662 C8.59848592,40.9808662 9.12454225,41.7477676 9.12454225,42.7358662 L9.12454225,45.5531197 L8.25623239,45.5531197 L8.25623239,42.8835423 C8.25623239,42.2649507 7.99764085,41.7661479 7.2218662,41.7661479 C6.53862676,41.7661479 6.1875,42.3112183 6.1875,42.9849507 L6.1875,45.5531197 Z M13.455507,42.8742887 C13.4371268,42.2366831 13.0213521,41.7385141 12.2367042,41.7385141 C11.5065634,41.7385141 11.0635352,42.3019648 11.0261408,42.8742887 L13.455507,42.8742887 Z M14.3333239,44.2870352 C14.0836056,45.0729507 13.3724789,45.6915423 12.3381127,45.6915423 C11.1465634,45.6915423 10.1026901,44.8232324 10.1026901,43.3179507 C10.1026901,41.9229507 11.1098028,40.9716127 12.2271972,40.9716127 C13.5943099,40.9716127 14.3605775,41.9134437 14.3605775,43.2995704 C14.3605775,43.4104859 14.3517042,43.5214014 14.3421972,43.5759085 L10.9988873,43.5759085 C11.0172676,44.3706972 11.5895915,44.9246408 12.3381127,44.9246408 C13.0587465,44.9246408 13.4187465,44.5278803 13.5848028,44.0284437 L14.3333239,44.2870352 Z M17.8880704,41.9873451 C17.7587746,41.9695986 17.6294789,41.9600915 17.5096901,41.9600915 C16.7795493,41.9600915 16.2902535,42.3479789 16.2902535,43.3272042 L16.2902535,45.5531197 L15.4219437,45.5531197 L15.4219437,41.110162 L16.2718732,41.110162 L16.2718732,41.8859366 C16.5951127,41.2026972 17.1490563,41.0366408 17.6015915,41.0366408 C17.7220141,41.0366408 17.8418028,41.0543873 17.8880704,41.0638944 L17.8880704,41.9873451 Z M21.8407183,43.1880845 C21.8407183,42.3299155 21.3235352,41.7664648 20.5750141,41.7664648 C19.8087465,41.7664648 19.2915634,42.3299155 19.2915634,43.1880845 C19.2915634,44.0563944 19.7903662,44.610338 20.5750141,44.610338 C21.3235352,44.610338 21.8407183,44.0468873 21.8407183,43.1880845 Z M19.2364225,45.5990704 C19.3004366,46.217662 19.7719859,46.6885775 20.4457183,46.6885775 C21.3786761,46.6885775 21.8039577,46.2087887 21.8039577,45.2479437 L21.8039577,44.610338 C21.591,45.0172394 21.1112113,45.3404789 20.4457183,45.3404789 C19.2636761,45.3404789 18.4048732,44.4442817 18.4048732,43.1880845 C18.4048732,41.9870282 19.2269155,41.0274507 20.4457183,41.0274507 C21.1295915,41.0274507 21.591,41.2854085 21.8134648,41.7290704 L21.8134648,41.1104789 L22.6722676,41.1104789 L22.6722676,45.2200563 C22.6722676,46.3469577 22.1176901,47.4466056 20.4457183,47.4466056 C19.337831,47.4466056 18.5062817,46.7443521 18.3953662,45.7923803 L19.2364225,45.5990704 Z M24.0103521,45.5533099 L24.0103521,41.1103521 L24.8691549,41.1103521 L24.8691549,45.5533099 L24.0103521,45.5533099 Z M24.435,38.8007746 C24.7861268,38.8007746 25.0630986,39.0777465 25.0630986,39.429507 C25.0630986,39.7711268 24.7861268,40.0480986 24.435,40.0480986 C24.0933803,40.0480986 23.8164085,39.7711268 23.8164085,39.429507 C23.8164085,39.0777465 24.0933803,38.8007746 24.435,38.8007746 Z M29.293162,42.8742887 C29.2747817,42.2366831 28.859007,41.7385141 28.0737254,41.7385141 C27.3442183,41.7385141 26.9011901,42.3019648 26.8637958,42.8742887 L29.293162,42.8742887 Z M30.1703451,44.2870352 C29.9212606,45.0729507 29.2101338,45.6915423 28.1751338,45.6915423 C26.9835845,45.6915423 25.9397113,44.8232324 25.9397113,43.3179507 C25.9397113,41.9229507 26.9468239,40.9716127 28.0648521,40.9716127 C29.431331,40.9716127 30.1982324,41.9134437 30.1982324,43.2995704 C30.1982324,43.4104859 30.1893592,43.5214014 30.1798521,43.5759085 L26.8365423,43.5759085 C26.8549225,44.3706972 27.4272465,44.9246408 28.1751338,44.9246408 C28.8957676,44.9246408 29.2557676,44.5278803 29.4224577,44.0284437 L30.1703451,44.2870352 Z M36.5147113,42.8742887 C36.496331,42.2366831 36.0805563,41.7385141 35.2952746,41.7385141 C34.5657676,41.7385141 34.1227394,42.3019648 34.0853451,42.8742887 L36.5147113,42.8742887 Z M37.3918944,44.2870352 C37.1428099,45.0729507 36.4316831,45.6915423 35.3973169,45.6915423 C34.2051338,45.6915423 33.1618944,44.8232324 33.1618944,43.3179507 C33.1618944,41.9229507 34.1683732,40.9716127 35.2864014,40.9716127 C36.6528803,40.9716127 37.4197817,41.9134437 37.4197817,43.2995704 C37.4197817,43.4104859 37.4109085,43.5214014 37.4014014,43.5759085 L34.0580915,43.5759085 C34.0764718,44.3706972 34.6487958,44.9246408 35.3973169,44.9246408 C36.1173169,44.9246408 36.4773169,44.5278803 36.644007,44.0284437 L37.3918944,44.2870352 Z M39.3492042,45.5531197 L38.4808944,45.5531197 L38.4808944,41.110162 L39.3308239,41.110162 L39.3308239,41.7477676 C39.6540634,41.1931901 40.1807535,40.9808662 40.6973028,40.9808662 C41.7595563,40.9808662 42.2862465,41.7477676 42.2862465,42.7358662 L42.2862465,45.5531197 L41.4179366,45.5531197 L41.4179366,42.8835423 C41.4179366,42.2649507 41.1593451,41.7661479 40.3835704,41.7661479 C39.700331,41.7661479 39.3492042,42.3112183 39.3492042,42.9849507 L39.3492042,45.5531197 Z M46.7551901,45.5531197 L45.8875141,45.5531197 L45.8875141,39.5845986 L46.7551901,39.5845986 L46.7551901,41.6279789 C47.0790634,41.1564296 47.5956127,40.9808662 48.1039225,40.9808662 C49.1661761,40.9808662 49.6928662,41.7477676 49.6928662,42.7358662 L49.6928662,45.5531197 L48.8245563,45.5531197 L48.8245563,42.8835423 C48.8245563,42.2649507 48.565331,41.7661479 47.7901901,41.7661479 C47.1246972,41.7661479 46.7735704,42.283331 46.7551901,42.9393169 L46.7551901,45.5531197 Z M54.0235141,42.8742887 C54.0051338,42.2366831 53.5893592,41.7385141 52.8040775,41.7385141 C52.0745704,41.7385141 51.6315423,42.3019648 51.5941479,42.8742887 L54.0235141,42.8742887 Z M54.901331,44.2870352 C54.6516127,45.0729507 53.9404859,45.6915423 52.9054859,45.6915423 C51.7139366,45.6915423 50.6706972,44.8232324 50.6706972,43.3179507 C50.6706972,41.9229507 51.6778099,40.9716127 52.7952042,40.9716127 C54.1623169,40.9716127 54.9292183,41.9134437 54.9292183,43.2995704 C54.9292183,43.4104859 54.9197113,43.5214014 54.9102042,43.5759085 L51.5668944,43.5759085 C51.5852746,44.3706972 52.1582324,44.9246408 52.9054859,44.9246408 C53.6261197,44.9246408 53.9861197,44.5278803 54.1528099,44.0284437 L54.901331,44.2870352 Z M58.4564577,41.9873451 C58.327162,41.9695986 58.1978662,41.9600915 58.0774437,41.9600915 C57.3479366,41.9600915 56.8586408,42.3479789 56.8586408,43.3272042 L56.8586408,45.5531197 L55.9896972,45.5531197 L55.9896972,41.110162 L56.8396268,41.110162 L56.8396268,41.8859366 C57.1628662,41.2026972 57.7174437,41.0366408 58.1699789,41.0366408 C58.2897676,41.0366408 58.4101901,41.0543873 58.4564577,41.0638944 L58.4564577,41.9873451 Z M62.4090423,43.1880845 C62.4090423,42.3299155 61.8918592,41.7664648 61.143338,41.7664648 C60.3764366,41.7664648 59.8598873,42.3299155 59.8598873,43.1880845 C59.8598873,44.0563944 60.3586901,44.610338 61.143338,44.610338 C61.8918592,44.610338 62.4090423,44.0468873 62.4090423,43.1880845 Z M59.8041127,45.5990704 C59.8687606,46.217662 60.3396761,46.6885775 61.0140423,46.6885775 C61.947,46.6885775 62.3716479,46.2087887 62.3716479,45.2479437 L62.3716479,44.610338 C62.1593239,45.0172394 61.6789014,45.3404789 61.0140423,45.3404789 C59.832,45.3404789 58.9725634,44.4442817 58.9725634,43.1880845 C58.9725634,41.9870282 59.7946056,41.0274507 61.0140423,41.0274507 C61.6972817,41.0274507 62.1593239,41.2854085 62.3811549,41.7290704 L62.3811549,41.1104789 L63.2405915,41.1104789 L63.2405915,45.2200563 C63.2405915,46.3469577 62.6860141,47.4466056 61.0140423,47.4466056 C59.9055211,47.4466056 59.0739718,46.7443521 58.9630563,45.7923803 L59.8041127,45.5990704 Z M67.5710493,42.8742887 C67.552669,42.2366831 67.1362606,41.7385141 66.3516127,41.7385141 C65.6221056,41.7385141 65.1790775,42.3019648 65.1416831,42.8742887 L67.5710493,42.8742887 Z M68.4482324,44.2870352 C68.1991479,45.0729507 67.4873873,45.6915423 66.4530211,45.6915423 C65.2614718,45.6915423 64.2182324,44.8232324 64.2182324,43.3179507 C64.2182324,41.9229507 65.2247113,40.9716127 66.3427394,40.9716127 C67.7092183,40.9716127 68.4761197,41.9134437 68.4761197,43.2995704 C68.4761197,43.4104859 68.4666127,43.5214014 68.4571056,43.5759085 L65.1137958,43.5759085 C65.1321761,44.3706972 65.7051338,44.9246408 66.4530211,44.9246408 C67.1736549,44.9246408 67.5336549,44.5278803 67.7003451,44.0284437 L68.4482324,44.2870352 Z M71.7081338,41.747831 C70.9412324,41.747831 70.3872887,42.3480423 70.3872887,43.3088873 C70.3872887,44.2690986 70.9412324,44.8971972 71.7081338,44.8971972 C72.5022887,44.8971972 73.018838,44.2690986 73.018838,43.3088873 C73.018838,42.3480423 72.5117958,41.747831 71.7081338,41.747831 Z M69.5373592,45.5531831 L69.5373592,39.584662 L70.3967958,39.584662 L70.3967958,41.7383239 C70.6091197,41.3409296 71.1263028,40.9809296 71.8646831,40.9809296 C73.2134155,40.9809296 73.906162,42.0152958 73.906162,43.3088873 C73.906162,44.6290986 73.1576408,45.6729718 71.8367958,45.6729718 C71.1814437,45.6729718 70.6731338,45.386493 70.3967958,44.9060704 L70.3967958,45.5531831 L69.5373592,45.5531831 Z M77.4334014,41.9873451 C77.3041056,41.9695986 77.1748099,41.9600915 77.0543873,41.9600915 C76.3248803,41.9600915 75.8355845,42.3479789 75.8355845,43.3272042 L75.8355845,45.5531197 L74.9666408,45.5531197 L74.9666408,41.110162 L75.8172042,41.110162 L75.8172042,41.8859366 C76.1404437,41.2026972 76.6943873,41.0366408 77.1469225,41.0366408 C77.2667113,41.0366408 77.3877676,41.0543873 77.4334014,41.0638944 L77.4334014,41.9873451 Z M79.9722887,45.6917324 C78.9379225,45.6917324 78.3098239,44.9153239 78.3098239,43.9088451 L78.3098239,41.1099718 L79.1781338,41.1099718 L79.1781338,43.7795493 C79.1781338,44.3892676 79.4557394,44.924831 80.1846127,44.924831 C80.8868662,44.924831 81.237993,44.4634225 81.237993,43.7884225 L81.237993,41.1099718 L82.1063028,41.1099718 L82.1063028,44.7308873 C82.1063028,45.0820141 82.1335563,45.3957465 82.1519366,45.5529296 L81.3210211,45.5529296 C81.3026408,45.4515211 81.2836268,45.2018028 81.2836268,45.0173662 C81.0434155,45.4787746 80.4894718,45.6917324 79.9722887,45.6917324 Z M83.5371127,45.5533099 L83.5371127,41.1103521 L84.3959155,41.1103521 L84.3959155,45.5533099 L83.5371127,45.5533099 Z M83.9617606,38.8007746 C84.3122535,38.8007746 84.5898592,39.0777465 84.5898592,39.429507 C84.5898592,39.7711268 84.3122535,40.0480986 83.9617606,40.0480986 C83.619507,40.0480986 83.343169,39.7711268 83.343169,39.429507 C83.343169,39.0777465 83.619507,38.8007746 83.9617606,38.8007746 Z M87.914662,42.9850775 L89.8445915,45.5532465 L88.7550845,45.5532465 L87.3049437,43.5947958 L86.6863521,44.2133873 L86.6863521,45.5532465 L85.8269155,45.5532465 L85.8269155,39.5847254 L86.6863521,39.5847254 L86.6863521,43.0776127 L88.6074085,41.1102887 L89.807831,41.1102887 L87.914662,42.9850775 Z" id="Combined-Shape" fill="#EB0024" fill-rule="nonzero"></path>
                </g>
            </g>
        </g>
    </g>
</svg>